<svg width="16" height="16" viewBox="0 0 16 16" fill="none" xmlns="http://www.w3.org/2000/svg">
<g id="Frame">
<path id="Vector" fill-rule="evenodd" clip-rule="evenodd" d="M7.99344 1.49554C7.56381 1.49512 7.13912 1.58719 6.74824 1.76549C6.35735 1.94379 6.00943 2.20415 5.72811 2.52887C5.29981 2.49829 4.86993 2.56021 4.46767 2.71044C4.06542 2.86067 3.70019 3.09569 3.39678 3.39954C3.09276 3.70299 2.85759 4.0683 2.70724 4.47068C2.5569 4.87306 2.4949 5.30308 2.52544 5.73154C2.20109 6.01293 1.94105 6.36081 1.76299 6.75156C1.58492 7.14231 1.493 7.56679 1.49344 7.9962C1.49344 8.90087 1.89344 9.71154 2.52544 10.2609C2.4949 10.6893 2.5569 11.1193 2.70724 11.5217C2.85759 11.9241 3.09276 12.2894 3.39678 12.5929C3.7002 12.8969 4.06551 13.1321 4.4679 13.2825C4.87028 13.4328 5.30031 13.4948 5.72878 13.4642C6.01009 13.7887 6.35793 14.0489 6.74869 14.2271C7.13945 14.4053 7.56398 14.4973 7.99344 14.4969C8.42291 14.4973 8.84744 14.4053 9.2382 14.2271C9.62896 14.0489 9.97681 13.7887 10.2581 13.4642C10.6865 13.4947 11.1164 13.4327 11.5186 13.2823C11.9209 13.132 12.2861 12.8968 12.5894 12.5929C12.8933 12.2894 13.1283 11.9242 13.2785 11.522C13.4287 11.1197 13.4906 10.6898 13.4601 10.2615C13.7848 9.98019 14.0451 9.63226 14.2234 9.24138C14.4017 8.8505 14.4938 8.42583 14.4934 7.9962C14.4934 7.09154 14.0928 6.28087 13.4608 5.73154C13.4913 5.30308 13.4293 4.87306 13.279 4.47068C13.1286 4.0683 12.8935 3.70299 12.5894 3.39954C12.286 3.09548 11.9207 2.86029 11.5183 2.70994C11.1159 2.55959 10.6859 2.49761 10.2574 2.5282C9.97621 2.20377 9.62848 1.94364 9.23784 1.76546C8.8472 1.58728 8.4228 1.49522 7.99344 1.49554ZM10.3468 6.34887C10.4351 6.25409 10.4832 6.12872 10.4809 5.99919C10.4786 5.86965 10.4261 5.74606 10.3345 5.65446C10.2429 5.56285 10.1193 5.51037 9.98979 5.50809C9.86026 5.5058 9.73489 5.55388 9.64011 5.6422L5.64011 9.6422C5.59099 9.68798 5.55159 9.74318 5.52426 9.80451C5.49693 9.86584 5.48224 9.93205 5.48105 9.99919C5.47987 10.0663 5.49222 10.133 5.51736 10.1953C5.54251 10.2575 5.57994 10.3141 5.62742 10.3616C5.6749 10.409 5.73145 10.4465 5.79371 10.4716C5.85597 10.4968 5.92266 10.5091 5.98979 10.5079C6.05693 10.5067 6.12314 10.4921 6.18447 10.4647C6.2458 10.4374 6.301 10.398 6.34678 10.3489L10.3468 6.34887ZM6.49344 5.74554C6.29453 5.74554 6.10377 5.82455 5.96311 5.96521C5.82246 6.10586 5.74344 6.29662 5.74344 6.49554C5.74344 6.69445 5.82246 6.88521 5.96311 7.02587C6.10377 7.16652 6.29453 7.24554 6.49344 7.24554C6.69236 7.24554 6.88312 7.16652 7.02377 7.02587C7.16443 6.88521 7.24344 6.69445 7.24344 6.49554C7.24344 6.29662 7.16443 6.10586 7.02377 5.96521C6.88312 5.82455 6.69236 5.74554 6.49344 5.74554ZM9.49344 8.74554C9.29453 8.74554 9.10377 8.82455 8.96311 8.96521C8.82246 9.10586 8.74344 9.29662 8.74344 9.49554C8.74344 9.69445 8.82246 9.88521 8.96311 10.0259C9.10377 10.1665 9.29453 10.2455 9.49344 10.2455C9.69236 10.2455 9.88312 10.1665 10.0238 10.0259C10.1644 9.88521 10.2434 9.69445 10.2434 9.49554C10.2434 9.29662 10.1644 9.10586 10.0238 8.96521C9.88312 8.82455 9.69236 8.74554 9.49344 8.74554Z" fill="white"/>
</g>
</svg>
