<svg xmlns="http://www.w3.org/2000/svg" viewBox="0 0 150 44" fill="none">
  <!-- SBP Origami Symbol -->
  <g transform="translate(6, 6) scale(0.9)">
    <path d="M18 0L36 12L22 17L18 0Z" fill="#F44336"/>
    <path d="M36 12L32 28L22 17L36 12Z" fill="#FF9800"/>
    <path d="M32 28L18 36L19 22L32 28Z" fill="#FFC107"/>
    <path d="M18 36L0 24L14 19L18 36Z" fill="#00BCD4"/>
    <path d="M0 24L4 8L14 19L0 24Z" fill="#2196F3"/>
    <path d="M4 8L18 0L17 14L4 8Z" fill="#9C27B0"/>
  </g>
  <!-- Text СБП -->
  <text x="50" y="21" fill="#FFFFFF" font-family="-apple-system, BlinkMacSystemFont, Exo 2, Inter, sans-serif" font-weight="900" font-size="19" letter-spacing="0.5">СБП</text>
  <!-- Badge I -->
  <rect x="94" y="8" width="13" height="15" rx="3" fill="#3A3B40"/>
  <text x="100.5" y="20" fill="#FFFFFF" font-family="-apple-system, BlinkMacSystemFont, Exo 2, Inter, sans-serif" font-weight="800" font-size="11" text-anchor="middle">I</text>
  <!-- Text QRCODE -->
  <text x="50" y="36" fill="#FFFFFF" font-family="-apple-system, BlinkMacSystemFont, Exo 2, Inter, sans-serif" font-weight="800" font-size="11" letter-spacing="1">QRCODE</text>
</svg>