<svg width="18" height="18" viewBox="0 0 18 18" fill="none" xmlns="http://www.w3.org/2000/svg">
<path fill-rule="evenodd" clip-rule="evenodd" d="M9.39591 12.2111C9.29044 12.3164 9.14747 12.3756 8.99841 12.3756C8.84934 12.3756 8.70638 12.3164 8.60091 12.2111L2.97591 6.58611C2.87655 6.47947 2.82245 6.33844 2.82503 6.19271C2.8276 6.04699 2.88663 5.90795 2.98969 5.80489C3.09275 5.70183 3.23179 5.6428 3.37751 5.64022C3.52324 5.63765 3.66428 5.69175 3.77091 5.79111L8.99841 11.0186L14.2259 5.79111C14.3325 5.69175 14.4736 5.63765 14.6193 5.64023C14.765 5.6428 14.9041 5.70183 15.0071 5.80489C15.1102 5.90795 15.1692 6.04699 15.1718 6.19271C15.1744 6.33844 15.1203 6.47947 15.0209 6.58611L9.39591 12.2111Z" fill="#FDDB0D"/>
</svg>
